inDegrees=no
num_controls=7
num_derivatives=13
num_iterations=36
num_multipliers=7
num_parameters=0
num_slacks=7
num_states=26
objective=0.416764
objective_accelerations=0.000000
objective_balance=0.010343
objective_effort=0.031323
objective_height=0.375098
objective_ligament=0.000000
solver_duration=479.038350
status=Solve_Succeeded
success=true
DataType=double
version=3
OpenSimVersion=4.5
endheader
time	/jointset/ground_pelvis/pelvis_tilt/value	/jointset/ground_pelvis/pelvis_tx/value	/jointset/ground_pelvis/pelvis_ty/value	/jointset/hip_l/hip_flexion_l/value	/jointset/hip_l/hip_adduction_l/value	/jointset/hip_l/hip_rotation_l/value	/jointset/back/lumbar_extension/value	/jointset/patellofemoral_l/patellar_flexion_l/value	/jointset/knee_l/knee_flexion_l/value	/jointset/knee_l/knee_adduction_l/value	/jointset/knee_l/knee_rotation_l/value	/jointset/ankle_l/ankle_angle_l/value	/jointset/subtalar_l/subtalar_angle_l/value	/jointset/ground_pelvis/pelvis_tilt/speed	/jointset/ground_pelvis/pelvis_tx/speed	/jointset/ground_pelvis/pelvis_ty/speed	/jointset/hip_l/hip_flexion_l/speed	/jointset/hip_l/hip_adduction_l/speed	/jointset/hip_l/hip_rotation_l/speed	/jointset/back/lumbar_extension/speed	/jointset/patellofemoral_l/patellar_flexion_l/speed	/jointset/knee_l/knee_flexion_l/speed	/jointset/knee_l/knee_adduction_l/speed	/jointset/knee_l/knee_rotation_l/speed	/jointset/ankle_l/ankle_angle_l/speed	/jointset/subtalar_l/subtalar_angle_l/speed	/forceset/tau_hip_flexion_l	/forceset/tau_hip_adduction_l	/forceset/tau_hip_rotation_l	/forceset/tau_knee_flexion_l	/forceset/tau_ankle_angle_l	/forceset/tau_subtalar_angle_l	/forceset/tau_lumbar_extension	lambda_cid13_p0	lambda_cid13_p1	lambda_cid13_p2	lambda_cid13_p3	lambda_cid13_p4	lambda_cid13_p5	lambda_cid14_p0	/jointset/ground_pelvis/pelvis_tilt/accel	/jointset/ground_pelvis/pelvis_tx/accel	/jointset/ground_pelvis/pelvis_ty/accel	/jointset/hip_l/hip_flexion_l/accel	/jointset/hip_l/hip_adduction_l/accel	/jointset/hip_l/hip_rotation_l/accel	/jointset/back/lumbar_extension/accel	/jointset/patellofemoral_l/patellar_flexion_l/accel	/jointset/knee_l/knee_flexion_l/accel	/jointset/knee_l/knee_adduction_l/accel	/jointset/knee_l/knee_rotation_l/accel	/jointset/ankle_l/ankle_angle_l/accel	/jointset/subtalar_l/subtalar_angle_l/accel	gamma_cid13_p0	gamma_cid13_p1	gamma_cid13_p2	gamma_cid13_p3	gamma_cid13_p4	gamma_cid13_p5	gamma_cid14_p0
1.5	-0.3314714700376204	-0.0605511646335018	0.8247432554594359	0.9704896869739323	-0.1908411011256387	0.0252692019214756	-0.371568565931766	0.4381023285646187	0.4381023285646199	-0.01151711956816085	-0.04055186511780804	-0.01262136284588187	0.06164976733755359	0.8215427821522673	0.2041373031937942	0.2116868786321352	-1.45722039435625	-0.1357220028065214	0.0737365950083798	0.08256561040045	-0.5052814075160932	-0.5052814075160917	-0.3042782055429518	-0.09742793552462996	0.1203838063336288	-0.1012225361034628	-0.2104160550655125	0.08295035614566573	0.002371466840920287	-0.1820621055008853	0.1785366201967425	-0.03101337307181752	0.210592368947058	14.02818264002015	15.30729439115979	-7.748080493400688	-0.3363234499621498	-637.1501180821466	-11.43935095702062	-36.00944325639271	-0.9473662822628623	0.3282973709033424	-0.01294616877248182	-0.3236494202823929	-0.4265341367781536	-1.733529045590183	3.183853708399624	-1.61776829851341	-1.61776829851341	-0.2710712240274423	1.464080528039488	-0.323665966656465	-0.5225220948571959	-1.041953271164464e-07	-1.130967681226485e-07	-9.135094360849136e-08	1.13442539844694e-08	9.383972828326206e-08	8.433661065575447e-09	-4.461107967512253e-08
1.51	-0.3233044517145197	-0.05849347210718066	0.8268592586125628	0.9559021562696927	-0.1922201386371639	0.02591907665563763	-0.3705836745967199	0.4329678692568879	0.4329678692568233	-0.01457450809476027	-0.04145211155869175	-0.01143452233478718	0.06061069622520435	0.811691060707048	0.207389007994653	0.2114861979471214	-1.460132291035399	-0.140097164576109	0.05610339701705051	0.1144960067211607	-0.5216921434801203	-0.5216921434801229	-0.3072212792662612	-0.08251364926244539	0.1168936748169091	-0.1066276054376841	-0.2047906378089946	0.08261054135535138	0.002888907274149081	-0.1837965709770758	0.1788593220608448	-0.03111226976466399	0.2069013678298657	14.20282699962669	15.37806056093385	-7.8260630690896	-0.2619728184444578	-636.0517438101241	-11.47884814583243	-36.10634747563589	-1.029557759348805	0.3217811238154075	-0.02774454574256418	-0.2519493405613654	-0.4447380299578473	-1.79845238251473	3.21013511111217	-1.664974110276767	-1.664974110277804	-0.3092098452003026	1.521270178636424	-0.3752987085972853	-0.5548656818686805	-8.27973098392943e-08	-8.404825470144697e-08	-7.973025466654315e-08	1.442354356041277e-08	8.991872259432736e-08	-4.676103426856706e-10	-3.348905046082798e-08
1.52	-0.3152410471425505	-0.05640362771502439	0.8289724318533668	0.9412901086889331	-0.1936432739329249	0.0263885719684827	-0.369276978795021	0.4276668530164768	0.4276668530164928	-0.01766198423822585	-0.04219998163598359	-0.01028530553172791	0.05951650115367894	0.800820031913911	0.2105676763608181	0.2111208961675694	-1.462123769667766	-0.1445415596620471	0.0376607107612914	0.1469265037301205	-0.5385927940413319	-0.5385927940413386	-0.3102957289383017	-0.06695266286715353	0.1128590647234755	-0.112247327938486	-0.1991652205525833	0.08227072656487432	0.003406347709565613	-0.1855310364533482	0.1791820239248906	-0.03121116645776209	0.2032103667126172	14.37255840906557	15.4484500790928	-7.9025724299072	-0.1708554276505558	-635.036860584357	-11.54698935181979	-36.20423172556161	-1.151227751845442	0.3136900839640586	-0.04587038768021149	-0.1395658109256934	-0.4403808000481538	-1.89542669847609	3.283873846049823	-1.71575121795038	-1.71575121795038	-0.2973464137734455	1.593420554660818	-0.4325616819999608	-0.5654527281734026	-5.636051068475484e-08	-4.737132020111935e-08	-6.629053798443327e-08	1.724459845625957e-08	8.450419887908579e-08	-1.05333154949282e-08	-2.000874639873561e-08
1.53	-0.3072913598253734	-0.05428237861011406	0.8310811349351352	0.9266626956140692	-0.1951109826605746	0.02666921288414517	-0.3676437622836483	0.4221944561152527	0.4221944561157068	-0.02078042062656387	-0.04278879391030409	-0.009179154948866933	0.05836526619635232	0.7889481303671886	0.2136675320610652	0.210591945587291	-1.463201322025463	-0.1489904602717997	0.01835767651400194	0.1797800981832727	-0.5559608538022623	-0.5559608538022621	-0.31338975569563	-0.05074026175951293	0.1082785060963338	-0.1180136428891708	-0.1933024551712011	0.08187394704006638	0.003935753093147159	-0.1873641044905654	0.1796749294005743	-0.03135431979992832	0.199237446125711	14.60445242352098	15.53165646880283	-7.986243209448102	-0.1131541607922068	-633.8818137867164	-11.59150050960504	-36.30287191552908	-1.230564086797404	0.3059456583751295	-0.06055883233538162	-0.06821780866084769	-0.4456891965955047	-1.96419977851186	3.295597190944477	-1.758474406694477	-1.758474406693759	-0.3151578403095643	1.645590121438119	-0.4846874798771732	-0.5843158043097658	-2.457000578549132e-08	-2.589188304220318e-09	-5.091810432840161e-08	1.979127900450376e-08	7.750281226089316e-08	-2.183623150015095e-08	-4.022775310858097e-09
1.54	-0.2994654700698865	-0.05213056847913948	0.8331837182232769	0.9120292334435288	-0.196622889295577	0.02675353185966178	-0.365680110838524	0.4165461504063988	0.4165461504063835	-0.02392974269013309	-0.04321339412909318	-0.0081215868577187	0.05715594910435764	0.7760605195917888	0.2166798815736636	0.2098969374421826	-1.463333588802101	-0.1533811410880682	-0.001603677359322509	0.2130134904763164	-0.5737745556243832	-0.5737745556243761	-0.3164728637967152	-0.0341102513468181	0.1031425663969532	-0.1238637548715626	-0.1874396897887962	0.08147716751652416	0.004465158463748459	-0.1891971725268063	0.1801678348768339	-0.03149747314022842	0.1952645255393222	14.83083755175375	15.61348872555186	-8.067023258857509	-0.03171034932628202	-632.8164246949284	-11.66445404484551	-36.40204392843417	-1.354369597579806	0.296188846433745	-0.07908190064630705	0.04949130528638433	-0.4287368413508106	-2.027090623682915	3.359833414028476	-1.804879630188578	-1.804879630188578	-0.2951626825247637	1.676942415671465	-0.54363789644855	-0.582212134514979	6.739857107680154e-08	1.42499846003137e-07	7.45039418662622e-08	4.137325375549371e-08	1.166408473202165e-08	-6.114696177956042e-08	3.911354233313059e-08
